<?xml version="1.0" encoding="iso-8859-1"?>
<!-- Uploaded to: SVG Repo, www.svgrepo.com, Generator: SVG Repo Mixer Tools -->
<svg height="800px" width="800px" version="1.1" id="Layer_1" xmlns="http://www.w3.org/2000/svg" xmlns:xlink="http://www.w3.org/1999/xlink" 
	 viewBox="0 0 512 512" xml:space="preserve">
<path style="fill:#B1C6E4;" d="M467.478,378.435H178.087c-9.217,0-16.696-7.479-16.696-16.696V16.696
	C161.391,7.479,168.87,0,178.087,0h289.391c9.217,0,16.696,7.479,16.696,16.696v345.043
	C484.174,370.956,476.695,378.435,467.478,378.435z"/>
<path style="fill:#9DB0CA;" d="M467.478,0H322.783v378.435h144.696c9.217,0,16.696-7.479,16.696-16.696V16.696
	C484.174,7.479,476.695,0,467.478,0z"/>
<path style="fill:#C5DCFD;" d="M400.696,445.217H111.304c-9.217,0-16.696-7.479-16.696-16.696V83.478
	c0-9.217,7.479-16.696,16.696-16.696h289.391c9.217,0,16.696,7.479,16.696,16.696v345.043
	C417.391,437.739,409.913,445.217,400.696,445.217z"/>
<path style="fill:#B1C6E4;" d="M400.696,66.783H256v378.435h144.696c9.217,0,16.696-7.479,16.696-16.696V83.478
	C417.391,74.261,409.913,66.783,400.696,66.783z"/>
<path style="fill:#DBE9FD;" d="M333.913,512H44.522c-9.217,0-16.696-7.479-16.696-16.696V150.261
	c0-9.217,7.479-16.696,16.696-16.696h289.391c9.217,0,16.696,7.479,16.696,16.696v345.043C350.609,504.521,343.13,512,333.913,512z"
	/>
<path style="fill:#C5DCFD;" d="M333.913,133.565H189.217V512h144.696c9.217,0,16.696-7.479,16.696-16.696V150.261
	C350.609,141.044,343.13,133.565,333.913,133.565z"/>
<path style="fill:#A1AAB3;" d="M267.13,244.87H111.304c-9.217,0-16.696-7.479-16.696-16.696s7.479-16.696,16.696-16.696H267.13
	c9.217,0,16.696,7.479,16.696,16.696S276.348,244.87,267.13,244.87z"/>
<path style="fill:#8A9199;" d="M267.13,311.652h-41.75c-9.217,0-16.696-7.479-16.696-16.696c0-9.217,7.479-16.696,16.696-16.696
	h41.75c9.217,0,16.696,7.479,16.696,16.696C283.826,304.174,276.348,311.652,267.13,311.652z"/>
<g>
	<path style="fill:#A1AAB3;" d="M158.598,311.652h-47.293c-9.217,0-16.696-7.479-16.696-16.696c0-9.217,7.479-16.696,16.696-16.696
		h47.293c9.217,0,16.696,7.479,16.696,16.696C175.293,304.174,167.815,311.652,158.598,311.652z"/>
	<path style="fill:#A1AAB3;" d="M267.13,378.435H111.304c-9.217,0-16.696-7.479-16.696-16.696c0-9.217,7.479-16.696,16.696-16.696
		H267.13c9.217,0,16.696,7.479,16.696,16.696C283.826,370.956,276.348,378.435,267.13,378.435z"/>
	<path style="fill:#A1AAB3;" d="M267.13,445.217h-77.913c-9.217,0-16.696-7.479-16.696-16.696c0-9.217,7.479-16.696,16.696-16.696
		h77.913c9.217,0,16.696,7.479,16.696,16.696C283.826,437.739,276.348,445.217,267.13,445.217z"/>
</g>
<g>
	<path style="fill:#8A9199;" d="M267.13,445.217c9.217,0,16.696-7.479,16.696-16.696c0-9.217-7.479-16.696-16.696-16.696h-77.913
		v33.391H267.13z"/>
	<path style="fill:#8A9199;" d="M267.13,345.043h-77.913v33.391h77.913c9.217,0,16.696-7.479,16.696-16.696
		C283.826,352.522,276.348,345.043,267.13,345.043z"/>
	<path style="fill:#8A9199;" d="M267.13,211.478h-77.913v33.391h77.913c9.217,0,16.696-7.479,16.696-16.696
		S276.348,211.478,267.13,211.478z"/>
</g>
</svg>