<svg xmlns="http://www.w3.org/2000/svg" xmlns:xlink="http://www.w3.org/1999/xlink">

<symbol id="github" fill-rule="evenodd" clip-rule="evenodd" stroke-linejoin="round" stroke-miterlimit="1.414"><path d="M8 0C3.58 0 0 3.582 0 8c0 3.535 2.292 6.533 5.47 7.59.4.075.547-.172.547-.385 0-.19-.007-.693-.01-1.36-2.226.483-2.695-1.073-2.695-1.073-.364-.924-.89-1.17-.89-1.17-.725-.496.056-.486.056-.486.803.056 1.225.824 1.225.824.714 1.223 1.873.87 2.33.665.072-.517.278-.87.507-1.07-1.777-.2-3.644-.888-3.644-3.953 0-.873.31-1.587.823-2.147-.09-.202-.36-1.015.07-2.117 0 0 .67-.215 2.2.82.64-.178 1.32-.266 2-.27.68.004 1.36.092 2 .27 1.52-1.035 2.19-.82 2.19-.82.43 1.102.16 1.915.08 2.117.51.56.82 1.274.82 2.147 0 3.073-1.87 3.75-3.65 3.947.28.24.54.73.54 1.48 0 1.07-.01 1.93-.01 2.19 0 .21.14.46.55.38C13.71 14.53 16 11.53 16 8c0-4.418-3.582-8-8-8"/></symbol>

<symbol id="linkedin" fill-rule="evenodd" clip-rule="evenodd" stroke-linejoin="round" stroke-miterlimit="1.414"><path d="M13.632 13.635h-2.37V9.922c0-.886-.018-2.025-1.234-2.025-1.235 0-1.424.964-1.424 1.96v3.778h-2.37V6H8.51v1.04h.03c.318-.6 1.092-1.233 2.247-1.233 2.4 0 2.845 1.58 2.845 3.637v4.188zM3.558 4.955c-.762 0-1.376-.617-1.376-1.377 0-.758.614-1.375 1.376-1.375.76 0 1.376.617 1.376 1.375 0 .76-.617 1.377-1.376 1.377zm1.188 8.68H2.37V6h2.376v7.635zM14.816 0H1.18C.528 0 0 .516 0 1.153v13.694C0 15.484.528 16 1.18 16h13.635c.652 0 1.185-.516 1.185-1.153V1.153C16 .516 15.467 0 14.815 0z" fill-rule="nonzero"/></symbol>

<symbol id="orcid" fill-rule="evenodd" clip-rule="evenodd" stroke-linejoin="round" stroke-miterlimit="1.414">
  <path transform="scale(0.5)" d="M16 0c-8.839 0-16 7.161-16 16s7.161 16 16 16c8.839 0 16-7.161 16-16s-7.161-16-16-16zM9.823 5.839c0.704 0 1.265 0.573 1.265 1.26 0 0.688-0.561 1.265-1.265 1.265-0.692-0.004-1.26-0.567-1.26-1.265 0-0.697 0.563-1.26 1.26-1.26zM8.864 9.885h1.923v13.391h-1.923zM13.615 9.885h5.197c4.948 0 7.125 3.541 7.125 6.703 0 3.439-2.687 6.699-7.099 6.699h-5.224zM15.536 11.625v9.927h3.063c4.365 0 5.365-3.312 5.365-4.964 0-2.687-1.713-4.963-5.464-4.963z"/>
</symbol>

<symbol id="email" fill-rule="evenodd" clip-rule="evenodd" stroke-linejoin="round" stroke-miterlimit="1.414">
  <path transform="scale(0.7)" d="M22,5V9L12,13,2,9V5A1,1,0,0,1,3,4H21A1,1,0,0,1,22,5ZM2,11.154V19a1,1,0,0,0,1,1H21a1,1,0,0,0,1-1V11.154l-10,4Z"/>
</symbol>
</svg>
