<?xml version="1.0" encoding="UTF-8" standalone="no"?>
<svg
   height="24"
   viewBox="0 -960 960 960"
   width="24"
   version="1.1"
   id="svg11"
   sodipodi:docname="phone.svg"
   inkscape:version="1.2.2 (b0a8486541, 2022-12-01)"
   xmlns:inkscape="http://www.inkscape.org/namespaces/inkscape"
   xmlns:sodipodi="http://sodipodi.sourceforge.net/DTD/sodipodi-0.dtd"
   xmlns="http://www.w3.org/2000/svg"
   xmlns:svg="http://www.w3.org/2000/svg">
  <defs
     id="defs15" />
  <sodipodi:namedview
     id="namedview13"
     pagecolor="#505050"
     bordercolor="#ffffff"
     borderopacity="1"
     inkscape:showpageshadow="0"
     inkscape:pageopacity="0"
     inkscape:pagecheckerboard="1"
     inkscape:deskcolor="#505050"
     showgrid="false"
     inkscape:zoom="32"
     inkscape:cx="10.546875"
     inkscape:cy="12.609375"
     inkscape:window-width="1880"
     inkscape:window-height="1040"
     inkscape:window-x="2576"
     inkscape:window-y="376"
     inkscape:window-maximized="1"
     inkscape:current-layer="svg11" />
  <path
     d="m 864.74757,-45.097086 q -149.27184,0 -294.96117,-65.082524 -145.68931,-65.08253 -265.10679,-184.5 -119.41747,-119.41748 -184.5,-265.10679 -65.082523,-145.68933 -65.082523,-294.96117 0,-21.49516 14.330097,-35.82524 14.330097,-14.3301 35.825246,-14.3301 h 193.45631 q 16.71844,0 29.85436,11.34467 13.13592,11.34465 15.52428,26.86892 l 31.04854,167.18446 q 2.38835,19.1068 -1.19418,32.24272 -3.58252,13.13592 -13.13592,22.68932 l -115.83496,117.02914 q 23.88351,44.18445 56.72331,85.38349 32.83982,41.19902 72.24757,79.41263 37.01943,37.0194 77.62138,68.66504 40.60193,31.64563 85.98056,57.91746 l 112.25243,-112.25243 q 10.74759,-10.74756 28.06311,-16.12135 17.31554,-5.37378 34.03398,-2.98543 l 164.79612,33.43689 q 16.71845,4.7767 27.466,17.31552 10.74759,12.53885 10.74759,28.06312 v 193.456308 q 0,21.495155 -14.3301,35.82525 -14.33008,14.330096 -35.82524,14.330096 z M 199.59223,-618.30098 278.40778,-697.1165 258.1068,-809.36892 H 151.82524 q 5.97088,48.96115 16.71845,96.72814 10.74757,47.76699 31.04854,94.3398 z m 427.51455,427.51457 q 46.57283,20.30098 94.93692,32.24272 48.36407,11.94175 97.32522,15.52427 V -248.1068 L 707.1165,-270.79611 Z M 199.59223,-618.30098 Z m 427.51455,427.51457 z"
     id="path9"
     style="fill:#d8dee9;fill-opacity:1;stroke:#d8dee9;stroke-width:1.19417;stroke-opacity:1" />
</svg>
