<?xml version="1.0" encoding="UTF-8" standalone="no"?>
<svg
   viewBox="0 0 64 64"
   width="256px"
   height="256px"
   version="1.1"
   id="svg11"
   sodipodi:docname="icons8-github.svg"
   inkscape:version="1.2.2 (b0a8486541, 2022-12-01)"
   xmlns:inkscape="http://www.inkscape.org/namespaces/inkscape"
   xmlns:sodipodi="http://sodipodi.sourceforge.net/DTD/sodipodi-0.dtd"
   xmlns="http://www.w3.org/2000/svg"
   xmlns:svg="http://www.w3.org/2000/svg">
  <defs
     id="defs15" />
  <sodipodi:namedview
     id="namedview13"
     pagecolor="#505050"
     bordercolor="#ffffff"
     borderopacity="1"
     inkscape:showpageshadow="0"
     inkscape:pageopacity="0"
     inkscape:pagecheckerboard="1"
     inkscape:deskcolor="#505050"
     showgrid="false"
     inkscape:zoom="4"
     inkscape:cx="82.375"
     inkscape:cy="149.375"
     inkscape:window-width="2520"
     inkscape:window-height="1344"
     inkscape:window-x="16"
     inkscape:window-y="72"
     inkscape:window-maximized="1"
     inkscape:current-layer="svg11" />
  <path
     d="M32 6C17.641 6 6 17.641 6 32c0 12.277 8.512 22.56 19.955 25.286-.592-.141-1.179-.299-1.755-.479V50.85c0 0-.975.325-2.275.325-3.637 0-5.148-3.245-5.525-4.875-.229-.993-.827-1.934-1.469-2.509-.767-.684-1.126-.686-1.131-.92-.01-.491.658-.471.975-.471 1.625 0 2.857 1.729 3.429 2.623 1.417 2.207 2.938 2.577 3.721 2.577.975 0 1.817-.146 2.397-.426.268-1.888 1.108-3.57 2.478-4.774-6.097-1.219-10.4-4.716-10.4-10.4 0-2.928 1.175-5.619 3.133-7.792C19.333 23.641 19 22.494 19 20.625c0-1.235.086-2.751.65-4.225 0 0 3.708.026 7.205 3.338C28.469 19.268 30.196 19 32 19s3.531.268 5.145.738c3.497-3.312 7.205-3.338 7.205-3.338.567 1.474.65 2.99.65 4.225 0 2.015-.268 3.19-.432 3.697C46.466 26.475 47.6 29.124 47.6 32c0 5.684-4.303 9.181-10.4 10.4 1.628 1.43 2.6 3.513 2.6 5.85v8.557c-.576.181-1.162.338-1.755.479C49.488 54.56 58 44.277 58 32 58 17.641 46.359 6 32 6zM33.813 57.93C33.214 57.972 32.61 58 32 58 32.61 58 33.213 57.971 33.813 57.93zM37.786 57.346c-1.164.265-2.357.451-3.575.554C35.429 57.797 36.622 57.61 37.786 57.346zM32 58c-.61 0-1.214-.028-1.813-.07C30.787 57.971 31.39 58 32 58zM29.788 57.9c-1.217-.103-2.411-.289-3.574-.554C27.378 57.61 28.571 57.797 29.788 57.9z"
     id="path9"
     style="fill:#d8dee9" />
  <path
     style="fill:#d8dee9;stroke-width:0.03125"
     d="M 95.21875,226.67427 C 90.31849,225.03853 86.063578,223.27694 81.5,220.99453 68.670111,214.57786 57.254918,205.52071 48.028801,194.4375 c -0.694932,-0.83481 -0.935051,-1.1311 -0.935051,-1.15379 0,-0.01 0.09107,-0.0181 0.20237,-0.0181 h 0.20237 l 0.352318,0.42793 c 2.23867,2.71909 4.200532,4.87551 6.819735,7.49607 1.49382,1.4946 2.352472,2.31851 3.563832,3.41967 8.46437,7.69429 18.092611,13.9261 28.587012,18.50275 2.621141,1.14309 9.013485,3.65358 9.302932,3.65358 0.125775,0 0.211275,-1.21764 0.317075,-4.51562 0.04977,-1.55154 0.07292,-12.83002 0.02998,-14.61215 -0.06873,-2.85296 -0.179894,-3.61038 -0.543263,-3.70158 -0.04593,-0.0115 -0.176781,0.0121 -0.322975,0.0582 -0.426296,0.1346 -1.293028,0.25801 -2.77539,0.39517 -0.377231,0.0349 -0.735825,0.0618 -0.796875,0.0598 -0.124244,-0.004 -0.13941,-0.001 0.764,-0.13874 1.125278,-0.17114 2.43304,-0.44742 3.40625,-0.7196 0.275,-0.0769 0.517578,-0.14602 0.539062,-0.15357 0.03121,-0.011 0.03906,2.37459 0.03906,11.8603 0,9.47894 -0.0079,11.8738 -0.03906,11.87296 -0.02148,-5.9e-4 -0.707031,-0.22403 -1.523437,-0.49655 z"
     id="path987"
     transform="scale(0.25)" />
  <path
     style="fill:#d8dee9;stroke-width:0.015625"
     d="m 46.755257,192.89489 c -3.831787,-4.79011 -7.181933,-9.82404 -10.125909,-15.2152 -0.403529,-0.73897 -1.191848,-2.23156 -1.191848,-2.25663 0,-0.005 0.08553,-0.008 0.190058,-0.006 l 0.190058,0.004 0.13128,0.25 c 0.760228,1.44773 1.351791,2.52864 2.048037,3.74219 2.708216,4.7204 5.893212,9.37316 9.28942,13.57031 l 0.214935,0.26563 -0.196571,0.008 c -0.135135,0.005 -0.200401,0.014 -0.208822,0.0277 -0.0083,0.0134 -0.119152,-0.11375 -0.340638,-0.39063 z"
     id="path989"
     transform="scale(0.25)" />
</svg>
