<?xml version="1.0" encoding="UTF-8" standalone="no"?>
<svg
   viewBox="0 0 64 64"
   width="256px"
   height="256px"
   version="1.1"
   id="svg11"
   sodipodi:docname="icons8-github.svg"
   inkscape:version="1.2.2 (b0a8486541, 2022-12-01)"
   xmlns:inkscape="http://www.inkscape.org/namespaces/inkscape"
   xmlns:sodipodi="http://sodipodi.sourceforge.net/DTD/sodipodi-0.dtd"
   xmlns="http://www.w3.org/2000/svg"
   xmlns:svg="http://www.w3.org/2000/svg">
  <defs
     id="defs15" />
  <sodipodi:namedview
     id="namedview13"
     pagecolor="#505050"
     bordercolor="#ffffff"
     borderopacity="1"
     inkscape:showpageshadow="0"
     inkscape:pageopacity="0"
     inkscape:pagecheckerboard="1"
     inkscape:deskcolor="#505050"
     showgrid="false"
     inkscape:zoom="4"
     inkscape:cx="82.375"
     inkscape:cy="209.875"
     inkscape:window-width="1880"
     inkscape:window-height="1040"
     inkscape:window-x="2576"
     inkscape:window-y="376"
     inkscape:window-maximized="1"
     inkscape:current-layer="svg11" />
  <path
     d="M 32,4.25 C 16.674528,4.25 4.25,16.674528 4.25,32 4.25,45.103336 13.334924,56.07846 25.548124,58.987942 24.91628,58.837452 24.28977,58.668818 23.675,58.476702 V 52.11875 c 0,0 -1.040626,0.346876 -2.428124,0.346876 -3.8818,0 -5.494502,-3.463414 -5.896876,-5.203127 C 15.105586,46.202664 14.467336,45.198328 13.782124,44.584626 12.963502,43.854586 12.580336,43.852452 12.575,43.602702 12.564322,43.078654 13.277288,43.1 13.615626,43.1 c 1.734374,0 3.049298,1.845374 3.659796,2.799548 1.512376,2.355548 3.135752,2.750452 3.971454,2.750452 1.040625,0 1.939298,-0.155826 2.558336,-0.454672 C 24.09125,46.18025 24.987788,44.385038 26.45,43.1 19.942626,41.798952 15.35,38.066578 15.35,32 c 0,-3.125076 1.254086,-5.997202 3.343876,-8.31646 C 18.480414,23.078374 18.125,21.854174 18.125,19.859374 c 0,-1.318124 0.09178,-2.936162 0.69375,-4.509374 0,0 3.957578,0.02774 7.689952,3.562672 C 28.231336,18.411038 30.074578,18.125 32,18.125 c 1.925422,0 3.768664,0.286038 5.491298,0.787672 C 41.223672,15.37775 45.18125,15.35 45.18125,15.35 c 0.605164,1.573212 0.69375,3.19125 0.69375,4.509374 0,2.150626 -0.286038,3.404712 -0.461076,3.945838 C 47.439672,26.103124 48.65,28.930422 48.65,32 c 0,6.066578 -4.592626,9.798952 -11.1,11.1 1.737578,1.52625 2.775,3.749452 2.775,6.24375 v 9.132952 c -0.61477,0.193182 -1.240212,0.36075 -1.873124,0.51124 C 50.665076,56.07846 59.75,45.103336 59.75,32 59.75,16.674528 47.325472,4.25 32,4.25 Z m 1.93503,55.425288 c -0.639318,0.04482 -1.283972,0.07472 -1.93503,0.07472 0.651058,0 1.294644,-0.03094 1.93503,-0.07472 z m 4.240412,-0.623308 c -1.242346,0.282838 -2.515644,0.481356 -3.815624,0.591288 1.29998,-0.109932 2.573278,-0.309518 3.815624,-0.591288 z M 32,59.75 c -0.651058,0 -1.295712,-0.02988 -1.93503,-0.07472 C 30.705356,59.719046 31.348942,59.75 32,59.75 Z m -2.360884,-0.106732 c -1.298914,-0.109932 -2.573278,-0.30845 -3.814558,-0.591288 1.242346,0.28177 2.515644,0.481356 3.814558,0.591288 z"
     id="path9"
     style="fill:#d8dee9;stroke-width:1.06732" />
  <path
     style="fill:#d8dee9;stroke-width:0.03125"
     d="M 95.21875,226.67427 C 90.31849,225.03853 86.063578,223.27694 81.5,220.99453 68.670111,214.57786 57.254918,205.52071 48.028801,194.4375 c -0.694932,-0.83481 -0.935051,-1.1311 -0.935051,-1.15379 0,-0.01 0.09107,-0.0181 0.20237,-0.0181 h 0.20237 l 0.352318,0.42793 c 2.23867,2.71909 4.200532,4.87551 6.819735,7.49607 1.49382,1.4946 2.352472,2.31851 3.563832,3.41967 8.46437,7.69429 18.092611,13.9261 28.587012,18.50275 2.621141,1.14309 9.013485,3.65358 9.302932,3.65358 0.125775,0 0.211275,-1.21764 0.317075,-4.51562 0.04977,-1.55154 0.07292,-12.83002 0.02998,-14.61215 -0.06873,-2.85296 -0.179894,-3.61038 -0.543263,-3.70158 -0.04593,-0.0115 -0.176781,0.0121 -0.322975,0.0582 -0.426296,0.1346 -1.293028,0.25801 -2.77539,0.39517 -0.377231,0.0349 -0.735825,0.0618 -0.796875,0.0598 -0.124244,-0.004 -0.13941,-0.001 0.764,-0.13874 1.125278,-0.17114 2.43304,-0.44742 3.40625,-0.7196 0.275,-0.0769 0.517578,-0.14602 0.539062,-0.15357 0.03121,-0.011 0.03906,2.37459 0.03906,11.8603 0,9.47894 -0.0079,11.8738 -0.03906,11.87296 -0.02148,-5.9e-4 -0.707031,-0.22403 -1.523437,-0.49655 z"
     id="path987"
     transform="scale(0.25)" />
  <path
     style="fill:#d8dee9;stroke-width:0.015625"
     d="m 46.755257,192.89489 c -3.831787,-4.79011 -7.181933,-9.82404 -10.125909,-15.2152 -0.403529,-0.73897 -1.191848,-2.23156 -1.191848,-2.25663 0,-0.005 0.08553,-0.008 0.190058,-0.006 l 0.190058,0.004 0.13128,0.25 c 0.760228,1.44773 1.351791,2.52864 2.048037,3.74219 2.708216,4.7204 5.893212,9.37316 9.28942,13.57031 l 0.214935,0.26563 -0.196571,0.008 c -0.135135,0.005 -0.200401,0.014 -0.208822,0.0277 -0.0083,0.0134 -0.119152,-0.11375 -0.340638,-0.39063 z"
     id="path989"
     transform="scale(0.25)" />
</svg>
